<svg id="Layer_1" xmlns="http://www.w3.org/2000/svg" viewBox="0 0 751.7 244.7"><style>.st0{fill:#dc5a27}.st1{fill:#f49723}.st2{fill:#1f6296}.st3{fill:#1ea3dd}.st4{fill:#823924}.st5{fill:#0d3b51}.st6{fill:#7e4f20}</style><path class="st0" d="M158.4 44.4h41.4l41.5 186.2h-41.5z"/><path class="st1" d="M282.7 44.4h-41.4l-41.5 186.2h41.5z"/><path class="st2" d="M241.3 44.4h41.4l41.4 186.2h-41.4z"/><path class="st3" d="M365.6 44.4h-41.5l-41.4 186.2h41.4z"/><path class="st0" d="M383.5 44.4h39.3v186.2h-39.3z"/><path class="st2" d="M442.9 44.4h39.3v186.2h-39.3z"/><path class="st0" d="M541.5 44.4h39.3v186.2h-39.3z"/><path class="st1" d="M601.3 44.4h39.3v186.2h-39.3z"/><path class="st3" d="M442.9 44.4l98.6 186.2h39.3L482.2 44.4zM601.3 80.7V44.4h39.3c56.8 0 92.7 37.4 92.7 93.1 0 65.8-37.9 93.1-92.7 93.1v-36.1c53.6 0 57.1-37.6 57.1-57 0-32.9-20.8-57-57.1-57-31.1 0-39.3.2-39.3.2z"/><path class="st4" d="M199.8 230.6l16.1-114.3 4.7 21.2z"/><path class="st5" d="M282.7 230.6l16-114.3 4.7 21.2z"/><path class="st6" d="M241.3 44.4l16 114.2 4.7-21.1z"/><path class="st1" d="M383.5 220.8l39.3-176.4v186.2h-39.3z"/><path class="st4" d="M383.5 200.3l39.3-155.9-39.3 176.4z"/><path class="st5" d="M442.9 44.4l39.3 74.1v14.1zM541.5 156.4v74.2l-5.7-10.8z"/><path class="st6" d="M601.3 80.7h39.3v7.9z"/><path class="st5" d="M640.6 194.5c12.3 0 57.1.4 57.1-57 0 60.9-44.7 63.1-57.1 60.2v-3.2z"/><g><path class="st0" d="M21.4 107.9c-.1 0-.1 0-.1.1 0 0 0 .1-.1.1v6.4H9.6v-103h11.5v40.1h.3c2.2-2.9 4.7-5 7.5-6.2 2.8-1.2 5.7-1.8 8.5-1.8 4.8 0 8.6 1 11.4 3 2.8 2 4.9 4.7 6.4 7.9 1.5 3.3 2.4 7 2.8 11.3s.6 8.6.6 12.9c0 4.8-.2 9.5-.7 13.9-.5 4.4-1.5 8.3-3 11.7-1.5 3.4-3.6 6-6.4 8-2.7 2-6.4 3-11 3-3.3 0-6.3-.6-8.9-1.7-2.7-1.2-5.1-3-7.2-5.7zm12.5-53c-2.9 0-5.3.7-7 2.1-1.8 1.4-3.1 3.2-4 5.5-.9 2.2-1.5 4.7-1.7 7.3-.2 2.7-.4 5.3-.4 7.8 0 2.8 0 5.7.1 8.9 0 3.2.5 6.1 1.3 8.8.8 2.7 2.1 4.9 3.9 6.7 1.8 1.8 4.4 2.6 7.8 2.6 2.8 0 5.1-.6 6.8-1.8 1.7-1.2 3-3 4-5.3.9-2.3 1.6-5 1.8-8s.5-6.4.5-10.1c0-3.9-.2-7.3-.5-10.4-.3-3-1-5.6-2-7.7-1-2.1-2.3-3.7-4-4.8-1.8-1-3.9-1.6-6.6-1.6zM93.2 128.5c-1.5 5-3.8 8.7-7 11.1-3.1 2.4-6.9 3.5-11.3 3.5h-3.7v-9.9h3.4c4.4 0 7.5-3.4 9.1-10.1l3-10.4-22.6-68.4h12.2L85 72.4l6.7 23.7h.4l6.2-23.7 8.2-28.1h11.9l-25.2 84.2z"/></g></svg>