<svg xmlns="http://www.w3.org/2000/svg" width="36.32" height="35.937" viewBox="0 0 18.16 17.969"><defs><style>.cls-1{fill:#f59824;fill-rule:evenodd}</style></defs><path id="instagram" class="cls-1" d="M1373.39 40.5h-13.61a2.253 2.253 0 0 1-2.26-2.248V24.77a2.253 2.253 0 0 1 2.26-2.248h13.61a2.253 2.253 0 0 1 2.26 2.248v13.486a2.253 2.253 0 0 1-2.26 2.244zm-6.81-12.475a3.5 3.5 0 0 0-3.18 2.023h-.01c0 .013-.01.026-.01.038a1.929 1.929 0 0 0-.09.226.466.466 0 0 0-.04.109 2.008 2.008 0 0 0-.07.238l-.03.113a2.22 2.22 0 0 0-.04.258.388.388 0 0 0-.02.105c-.01.122-.02.247-.02.373a3.515 3.515 0 0 0 7.03 0c0-.126-.01-.251-.02-.373-.01-.035-.01-.07-.02-.105a2.22 2.22 0 0 0-.04-.258l-.03-.113a2.008 2.008 0 0 0-.07-.238c-.01-.037-.03-.073-.04-.109a17.77 17.77 0 0 0-.09-.226c-.01-.012-.01-.025-.02-.038a3.513 3.513 0 0 0-3.19-2.019zm7.03-2.585a.9.9 0 0 0-.9-.9h-1.82a.906.906 0 0 0-.91.9v1.8a.906.906 0 0 0 .91.9h1.82a.9.9 0 0 0 .9-.9v-1.8zm0 4.608h-1.67a5.422 5.422 0 0 1 .2 1.461 5.555 5.555 0 0 1-11.11 0 5.422 5.422 0 0 1 .2-1.461h-1.67v7.53a.9.9 0 0 0 .9.9h12.25a.9.9 0 0 0 .9-.9v-7.53z" transform="translate(-1357.5 -22.531)"/></svg>