<svg id="Layer_1" xmlns="http://www.w3.org/2000/svg" viewBox="0 0 85 184"><style>.st0{fill:#fff}</style><path class="st0" d="M42.2 34.5c8.1 0 14.6-6.5 14.6-14.6S50.3 5.3 42.2 5.3c-8 0-14.6 6.5-14.6 14.6s6.6 14.6 14.6 14.6zM47.3 41.5h-2.6l1.1 4.7c.1.5 0 .9-.4 1.3l-2.3 2.2c-.1.1-.1.1-.2.1v.1l4 29.8c0 .3 0 .7-.2.9l-4 6.2c-.3.5-.9.5-1.2 0l-4.3-6.3c-.2-.3-.3-.6-.2-1l4.2-29.8v-.1l-.1-.1-2.1-2c-.3-.3-.5-.8-.4-1.2l1-4.7h-3.4C11.9 44.4 4 72.5 6.2 93.9c1 9.3 15.6 9.4 14.6 0-.8-7.8-.5-19.6 3.7-28 0 0 0 80.5-1 104.7-.4 10.8 16.2 10.7 16.7 0 .8-19 1-37.9 1-56.9h2.4c0 19 .2 38 1 56.9.4 10.7 17.1 10.8 16.7 0-1-24.2-1.7-95.7-1.6-106.3 5 8.4 5.4 21.2 4.6 29.6-1 9.3 13.6 9.2 14.6 0 2.1-21.8-6.1-50.6-31.6-52.4z"/></svg>