<svg id="Layer_1" xmlns="http://www.w3.org/2000/svg" viewBox="0 0 1500 1000"><style>.st0{fill:#1f6296}.st1{fill:#dc5a27}.st2{fill:#1ea3dd}.st3{fill:#f49723}</style><circle class="st0" cx="112.4" cy="90" r="11"/><path class="st0" d="M112.4 154.5c.9 0 1.7.7 1.7 1.7v49.7c0 3.3 2.6 6 6 6s6-2.7 6-6v-86.8c0-1 .9-1.6 1.6-1.6s1.6.5 1.6 1.6v32.5c0 1.9 1.5 3.8 3.8 3.8s3.8-1.9 3.8-3.8v-36.9c0-6-3.4-11.7-11.7-11.7h-12.7-12.7c-8.3 0-11.7 5.7-11.7 11.7v36.9c0 1.9 1.5 3.8 3.8 3.8s3.8-1.9 3.8-3.8v-32.5c0-1 .9-1.6 1.6-1.6.7 0 1.6.6 1.6 1.6v86.8c0 3.3 2.6 6 6 6s6-2.8 6-6v-49.7c-.2-1 .6-1.7 1.5-1.7z"/><circle class="st0" cx="143.1" cy="842.7" r="11"/><path class="st0" d="M143.1 907.2c.9 0 1.7.7 1.7 1.7v49.7c0 3.2 2.6 6 6 6s6-2.7 6-6v-86.8c0-1 .9-1.6 1.6-1.6s1.6.5 1.6 1.6v32.5c0 1.9 1.5 3.8 3.8 3.8s3.8-1.9 3.8-3.8v-36.9c0-6-3.4-11.7-11.7-11.7h-12.7-12.7c-8.3 0-11.7 5.7-11.7 11.7v36.9c0 1.9 1.5 3.8 3.8 3.8s3.8-1.9 3.8-3.8v-32.5c0-1 .9-1.6 1.6-1.6.7 0 1.6.6 1.6 1.6v86.8c0 3.3 2.6 6 6 6s6-2.8 6-6v-49.7c-.2-1 .6-1.7 1.5-1.7z"/><circle class="st1" cx="306.3" cy="249.8" r="11"/><path class="st1" d="M306.3 314.3c.9 0 1.7.7 1.7 1.7v49.7c0 3.2 2.6 6 6 6s6-2.7 6-6v-86.8c0-1 .9-1.6 1.6-1.6s1.6.5 1.6 1.6v32.5c0 1.9 1.5 3.8 3.8 3.8s3.8-1.9 3.8-3.8v-36.9c0-6-3.4-11.7-11.7-11.7h-12.7-12.7c-8.3 0-11.7 5.7-11.7 11.7v36.9c0 1.9 1.5 3.8 3.8 3.8s3.8-1.9 3.8-3.8v-32.5c0-1 .9-1.6 1.6-1.6s1.6.6 1.6 1.6v86.8c0 3.3 2.6 6 6 6s6-2.8 6-6V316c0-1 .6-1.7 1.5-1.7z"/><circle class="st2" cx="705.7" cy="193.8" r="11"/><path class="st2" d="M705.7 258.4c.9 0 1.7.7 1.7 1.7v49.7c0 3.2 2.6 6 6 6s6-2.7 6-6V223c0-1 .9-1.6 1.6-1.6.7 0 1.6.5 1.6 1.6v32.5c0 1.9 1.5 3.8 3.8 3.8s3.8-1.9 3.8-3.8v-36.9c0-6-3.4-11.7-11.7-11.7h-12.7-12.7c-8.3 0-11.7 5.7-11.7 11.7v36.9c0 1.9 1.5 3.8 3.8 3.8s3.8-1.9 3.8-3.8V223c0-1 .9-1.6 1.6-1.6s1.6.6 1.6 1.6v86.8c0 3.3 2.6 6 6 6s6-2.8 6-6v-49.7c0-1 .7-1.7 1.5-1.7z"/><circle class="st1" cx="1296.8" cy="101.9" r="11"/><path class="st1" d="M1296.8 166.5c.9 0 1.7.7 1.7 1.7v49.7c0 3.3 2.6 6 6 6s6-2.7 6-6v-86.8c0-1 .9-1.6 1.6-1.6s1.6.5 1.6 1.6v32.5c0 1.9 1.5 3.8 3.8 3.8s3.8-1.9 3.8-3.8v-36.9c0-6-3.4-11.7-11.7-11.7h-12.7-12.7c-8.3 0-11.7 5.7-11.7 11.7v36.9c0 1.9 1.5 3.8 3.8 3.8s3.8-1.9 3.8-3.8v-32.5c0-1 .9-1.6 1.6-1.6.7 0 1.6.6 1.6 1.6v86.8c0 3.3 2.6 6 6 6s6-2.8 6-6v-49.7c-.2-1 .6-1.7 1.5-1.7z"/><circle class="st3" cx="1332.3" cy="475.5" r="11"/><path class="st3" d="M1332.3 540c.9 0 1.7.7 1.7 1.7v49.7c0 3.2 2.6 6 6 6s6-2.7 6-6v-86.8c0-1 .9-1.6 1.6-1.6.7 0 1.6.5 1.6 1.6v32.5c0 1.9 1.5 3.8 3.8 3.8s3.8-1.9 3.8-3.8v-36.9c0-6-3.4-11.7-11.7-11.7h-12.7-12.7c-8.3 0-11.7 5.7-11.7 11.7v36.9c0 1.9 1.5 3.8 3.8 3.8s3.8-1.9 3.8-3.8v-32.5c0-1 .9-1.6 1.6-1.6s1.6.6 1.6 1.6v86.8c0 3.3 2.6 6 6 6s6-2.8 6-6v-49.7c0-1 .6-1.7 1.5-1.7z"/><circle class="st3" cx="480.5" cy="71" r="11"/><path class="st3" d="M480.5 135.5c.9 0 1.7.7 1.7 1.7v49.7c0 3.3 2.6 6 6 6s6-2.7 6-6v-86.8c0-1 .9-1.6 1.6-1.6s1.6.5 1.6 1.6v32.5c0 1.9 1.5 3.8 3.8 3.8s3.8-1.9 3.8-3.8V95.7c0-6-3.4-11.7-11.7-11.7h-12.7-12.7c-8.3 0-11.7 5.7-11.7 11.7v36.9c0 1.9 1.5 3.8 3.8 3.8s3.8-1.9 3.8-3.8v-32.5c0-1 .9-1.6 1.6-1.6s1.6.6 1.6 1.6v86.8c0 3.3 2.6 6 6 6s6-2.8 6-6v-49.7c-.2-1 .6-1.7 1.5-1.7z"/><circle class="st3" cx="908.4" cy="810" r="11"/><path class="st3" d="M908.4 874.5c.9 0 1.7.7 1.7 1.7v49.7c0 3.3 2.6 6 6 6s6-2.7 6-6v-86.8c0-1 .9-1.6 1.6-1.6.7 0 1.6.5 1.6 1.6v32.5c0 1.9 1.5 3.8 3.8 3.8s3.8-1.9 3.8-3.8v-36.9c0-6-3.4-11.7-11.7-11.7h-12.7-12.7c-8.3 0-11.7 5.7-11.7 11.7v36.9c0 1.9 1.5 3.8 3.8 3.8s3.8-1.9 3.8-3.8v-32.5c0-1 .9-1.6 1.6-1.6.7 0 1.6.6 1.6 1.6v86.8c0 3.3 2.6 6 6 6s6-2.8 6-6v-49.7c-.1-1 .7-1.7 1.5-1.7z"/><circle class="st0" cx="1356.8" cy="854.6" r="11"/><path class="st0" d="M1356.8 919.2c.9 0 1.7.7 1.7 1.7v49.7c0 3.2 2.6 6 6 6s6-2.7 6-6v-86.8c0-1 .9-1.6 1.6-1.6s1.6.5 1.6 1.6v32.5c0 1.9 1.5 3.8 3.8 3.8s3.8-1.9 3.8-3.8v-36.9c0-6-3.4-11.7-11.7-11.7h-12.7-12.7c-8.3 0-11.7 5.7-11.7 11.7v36.9c0 1.9 1.5 3.8 3.8 3.8s3.8-1.9 3.8-3.8v-32.5c0-1 .9-1.6 1.6-1.6.7 0 1.6.6 1.6 1.6v86.8c0 3.3 2.6 6 6 6s6-2.8 6-6v-49.7c0-1 .6-1.7 1.5-1.7z"/><g><circle class="st1" cx="1148.6" cy="655.3" r="11"/><path class="st1" d="M1148.6 719.8c.9 0 1.7.7 1.7 1.7v49.7c0 3.3 2.6 6 6 6s6-2.7 6-6v-86.8c0-1 .9-1.6 1.6-1.6s1.6.5 1.6 1.6v32.5c0 1.9 1.5 3.8 3.8 3.8s3.8-1.9 3.8-3.8V680c0-6-3.4-11.7-11.7-11.7h-12.7-12.7c-8.3 0-11.7 5.7-11.7 11.7v36.9c0 1.9 1.5 3.8 3.8 3.8s3.8-1.9 3.8-3.8v-32.5c0-1 .9-1.6 1.6-1.6s1.6.6 1.6 1.6v86.8c0 3.3 2.6 6 6 6s6-2.8 6-6v-49.7c-.2-1 .6-1.7 1.5-1.7z"/></g><g><circle class="st3" cx="306.3" cy="644.7" r="11"/><path class="st3" d="M306.3 709.2c.9 0 1.7.7 1.7 1.7v49.7c0 3.2 2.6 6 6 6s6-2.7 6-6v-86.8c0-1 .9-1.6 1.6-1.6s1.6.5 1.6 1.6v32.5c0 1.9 1.5 3.8 3.8 3.8s3.8-1.9 3.8-3.8v-36.9c0-6-3.4-11.7-11.7-11.7h-12.7-12.7c-8.3 0-11.7 5.7-11.7 11.7v36.9c0 1.9 1.5 3.8 3.8 3.8s3.8-1.9 3.8-3.8v-32.5c0-1 .9-1.6 1.6-1.6s1.6.6 1.6 1.6v86.8c0 3.3 2.6 6 6 6s6-2.8 6-6v-49.7c-.2-1 .6-1.7 1.5-1.7z"/></g><g><circle class="st0" cx="920.2" cy="431.9" r="11"/><path class="st0" d="M920.1 444.8h5.4c8.2 0 14.5 4.3 15.6 8.8.7 2.9 8.2 30.7 8.8 32.7.5 2-.8 4.2-2.7 4.6s-4.1-.5-4.6-2.7c-.6-2.2-7.5-28-7.7-28.6-.2-.5-1-1.5-1.9-1.1-.9.3-1.3 1.1-1.1 1.9s12.6 47.6 12.6 47.6h-10.7v39.7c0 4.3-3.6 6-6 6s-6-1.9-6-6V508h-3.4v39.7c0 4.2-3.6 6-6 6s-6-1.8-6-6V508h-10.7s12.4-46.8 12.6-47.6-.2-1.6-1.1-1.9c-.9-.3-1.8.6-1.9 1.1-.2.5-7.1 26.3-7.7 28.6-.6 2.2-2.8 3.1-4.6 2.7s-3.2-2.6-2.7-4.6c.5-2 7.8-29.8 8.8-32.7 1.2-3.7 7.4-8.8 15.6-8.8h5.4z"/></g><g><circle class="st3" cx="1129.7" cy="292.3" r="11"/><path class="st3" d="M1129.6 305.2h5.4c8.2 0 14.5 4.3 15.6 8.8.7 2.9 8.2 30.7 8.8 32.7.5 2-.8 4.2-2.7 4.6s-4.1-.5-4.6-2.7c-.6-2.2-7.5-28-7.7-28.6-.2-.5-1-1.5-1.9-1.1-.9.3-1.3 1.1-1.1 1.9.2.8 12.6 47.6 12.6 47.6h-10.7v39.7c0 4.2-3.6 6-6 6s-6-1.9-6-6v-39.7h-3.4v39.7c0 4.2-3.6 6-6 6s-6-1.8-6-6v-39.7h-10.7s12.4-46.8 12.6-47.6c.2-.8-.2-1.6-1.1-1.9-.9-.3-1.8.6-1.9 1.1-.2.5-7.1 26.3-7.7 28.6-.6 2.2-2.8 3.1-4.6 2.7-1.9-.4-3.2-2.6-2.7-4.6.5-2 7.8-29.8 8.8-32.7 1.2-3.7 7.4-8.8 15.6-8.8h5.4z"/></g><g><circle class="st0" cx="517.1" cy="429.5" r="11"/><path class="st0" d="M517 442.4h5.4c8.2 0 14.5 4.3 15.6 8.8.7 2.9 8.2 30.7 8.8 32.7.5 2-.8 4.2-2.7 4.6-1.9.4-4.1-.5-4.6-2.7-.6-2.2-7.5-28-7.7-28.6-.2-.5-1-1.5-1.9-1.1-.9.3-1.3 1.1-1.1 1.9.2.8 12.6 47.6 12.6 47.6h-10.7v39.7c0 4.3-3.6 6-6 6s-6-1.9-6-6v-39.7h-3.4v39.7c0 4.2-3.6 6-6 6s-6-1.8-6-6v-39.7h-10.7s12.4-46.8 12.6-47.6c.2-.8-.2-1.6-1.1-1.9-.9-.3-1.8.6-1.9 1.1-.2.5-7.1 26.3-7.7 28.6s-2.8 3.1-4.6 2.7c-1.9-.4-3.2-2.6-2.7-4.6.5-2 7.8-29.8 8.8-32.7 1.2-3.7 7.4-8.8 15.6-8.8h5.4z"/></g><g><circle class="st1" cx="930.6" cy="83" r="11"/><path class="st1" d="M930.6 95.9h5.4c8.2 0 14.5 4.3 15.6 8.8.7 2.9 8.2 30.7 8.8 32.7.5 2-.8 4.2-2.7 4.6-1.9.4-4.1-.5-4.6-2.7-.6-2.2-7.5-28-7.7-28.6-.2-.5-1-1.5-1.9-1.1s-1.3 1.1-1.1 1.9c.2.8 12.6 47.6 12.6 47.6h-10.7v39.7c0 4.3-3.6 6-6 6s-6-1.9-6-6v-39.7h-3.4v39.7c0 4.2-3.6 6-6 6s-6-1.8-6-6v-39.7h-10.7s12.4-46.8 12.6-47.6c.2-.8-.2-1.6-1.1-1.9s-1.8.6-1.9 1.1c-.2.5-7.1 26.3-7.7 28.6-.6 2.2-2.8 3.1-4.6 2.7-1.9-.4-3.2-2.6-2.7-4.6.5-2 7.8-29.8 8.8-32.7 1.2-3.7 7.4-8.8 15.6-8.8h5.4z"/></g><g><circle class="st1" cx="703.7" cy="624.7" r="11"/><path class="st1" d="M703.7 637.7h5.4c8.2 0 14.5 4.3 15.6 8.8.7 2.9 8.2 30.7 8.8 32.7.5 2-.8 4.2-2.7 4.6s-4.1-.5-4.6-2.7c-.6-2.2-7.5-28-7.7-28.6s-1-1.5-1.9-1.1-1.3 1.1-1.1 1.9c.2.8 12.6 47.6 12.6 47.6h-10.7v39.7c0 4.3-3.6 6-6 6s-6-1.9-6-6v-39.7H702v39.7c0 4.2-3.6 6-6 6s-6-1.8-6-6v-39.7h-10.7s12.4-46.8 12.6-47.6c.2-.8-.2-1.6-1.1-1.9-.9-.3-1.8.6-1.9 1.1-.2.5-7.1 26.3-7.7 28.6-.6 2.2-2.8 3.1-4.6 2.7-1.9-.4-3.2-2.6-2.7-4.6.5-2 7.8-29.8 8.8-32.7 1.2-3.7 7.4-8.8 15.6-8.8h5.4z"/></g><g><circle class="st2" cx="517" cy="802.2" r="11"/><path class="st2" d="M516.9 815.1h5.4c8.2 0 14.5 4.3 15.6 8.8.7 2.9 8.2 30.7 8.8 32.7.5 2-.8 4.2-2.7 4.6s-4.1-.5-4.6-2.7c-.6-2.2-7.5-28-7.7-28.6s-1-1.5-1.9-1.1-1.3 1.1-1.1 1.9 12.6 47.6 12.6 47.6h-10.7V918c0 4.3-3.6 6-6 6s-6-1.9-6-6v-39.7h-3.4V918c0 4.2-3.6 6-6 6s-6-1.8-6-6v-39.7h-10.7s12.4-46.8 12.6-47.6c.2-.8-.2-1.6-1.1-1.9s-1.8.6-1.9 1.1c-.2.5-7.1 26.3-7.7 28.6-.6 2.2-2.8 3.1-4.6 2.7-1.9-.4-3.2-2.6-2.7-4.6.5-2 7.8-29.8 8.8-32.7 1.2-3.7 7.4-8.8 15.6-8.8h5.4z"/></g><g><circle class="st2" cx="143.1" cy="456.9" r="11"/><path class="st2" d="M143 469.8h5.4c8.2 0 14.5 4.3 15.6 8.8.7 2.9 8.2 30.7 8.8 32.7.5 2-.8 4.2-2.7 4.6-1.9.4-4.1-.5-4.6-2.7-.6-2.2-7.5-28-7.7-28.6s-1-1.5-1.9-1.1c-.9.3-1.3 1.1-1.1 1.9.2.8 12.6 47.6 12.6 47.6h-10.7v39.7c0 4.2-3.6 6-6 6s-6-1.9-6-6V533h-3.4v39.7c0 4.2-3.6 6-6 6s-6-1.8-6-6V533h-10.7s12.4-46.8 12.6-47.6c.2-.8-.2-1.6-1.1-1.9-.9-.3-1.8.6-1.9 1.1-.2.5-7.1 26.3-7.7 28.6-.6 2.2-2.8 3.1-4.6 2.7-1.9-.4-3.2-2.6-2.7-4.6.5-2 7.8-29.8 8.8-32.7 1.2-3.7 7.4-8.8 15.6-8.8h5.4z"/></g></svg>