<svg id="Layer_1" xmlns="http://www.w3.org/2000/svg" viewBox="0 0 585 200"><style>.st0{fill:#dc5a27}.st1{fill:#f39623}.st2{fill:#1f6296}.st3{fill:#1ca3dc}.st4{fill:#813924}.st5{fill:#0c3b51}.st6{fill:#7e4f20}</style><path class="st0" d="M5 6.9h41.5l41.4 186.2H46.5z"/><path class="st1" d="M129.3 6.9H87.9L46.5 193.1h41.4z"/><path class="st2" d="M87.9 6.9h41.4l41.5 186.2h-41.5z"/><path class="st3" d="M212.2 6.9h-41.4l-41.5 186.2h41.5z"/><path class="st0" d="M230.1 6.9h39.3v186.2h-39.3z"/><path class="st2" d="M289.5 6.9h39.3v186.2h-39.3z"/><path class="st0" d="M388.2 6.9h39.3v186.2h-39.3z"/><path class="st1" d="M448 6.9h39.3v186.2H448z"/><path class="st3" d="M289.5 6.9l98.7 186.2h39.3L328.8 6.9zM448 43.2V6.9h39.3c56.8 0 92.7 37.4 92.7 93.1 0 65.8-37.9 93.1-92.7 93.1V157c53.6 0 57.1-37.6 57.1-57 0-32.9-20.8-57-57.1-57-31.2 0-39.3.2-39.3.2z"/><path class="st4" d="M46.5 193.1l16-114.2 4.7 21.1z"/><path class="st5" d="M129.3 193.1l16-114.2 4.8 21.1z"/><path class="st6" d="M87.9 6.9l16 114.2 4.7-21.1z"/><path class="st1" d="M230.1 183.3L269.4 6.9v186.2h-39.3z"/><path class="st4" d="M230.1 162.8L269.4 6.9l-39.3 176.4z"/><path class="st5" d="M289.5 6.9l39.3 74.2v14zM388.2 118.9v74.2l-5.8-10.8z"/><path class="st6" d="M448 43.2h39.3v8z"/><path class="st5" d="M487.3 157c12.3 0 57.1.4 57.1-57 0 60.9-44.7 63.1-57.1 60.2V157z"/></svg>