<svg xmlns="http://www.w3.org/2000/svg" width="24.25" height="24.03" viewBox="0 0 24.25 24.03"><defs><style>.cls-1{fill:#f59824;fill-rule:evenodd}</style></defs><path id="instagram" class="cls-1" d="M485.115 4528.52h-18.17a3.013 3.013 0 0 1-3.029-3v-18.01a3.021 3.021 0 0 1 3.029-3.01h18.17a3.021 3.021 0 0 1 3.028 3.01v18.01a3.012 3.012 0 0 1-3.028 3zm-9.085-16.66a4.7 4.7 0 0 0-4.257 2.7h-.005a.206.206 0 0 1-.02.05c-.045.1-.084.2-.122.3l-.054.15a3.9 3.9 0 0 0-.09.32c-.013.05-.028.1-.039.15-.025.11-.042.23-.058.34-.006.05-.016.1-.021.14a4.694 4.694 0 1 0 9.332 0c-.005-.04-.015-.09-.022-.14-.016-.11-.033-.23-.058-.34-.011-.05-.026-.1-.039-.15a3.54 3.54 0 0 0-.09-.32c-.016-.05-.036-.1-.054-.15-.037-.1-.077-.2-.121-.3a.25.25 0 0 1-.021-.05 4.7 4.7 0 0 0-4.261-2.7zm9.387-3.45a1.2 1.2 0 0 0-1.211-1.2h-2.422a1.2 1.2 0 0 0-1.212 1.2v2.4a1.208 1.208 0 0 0 1.212 1.2h2.422a1.207 1.207 0 0 0 1.211-1.2v-2.4zm0 6.15h-2.232a7.42 7.42 0 1 1-14.31 0h-2.233v10.06a1.207 1.207 0 0 0 1.211 1.2h16.353a1.207 1.207 0 0 0 1.211-1.2v-10.06z" transform="translate(-463.906 -4504.5)"/></svg>