<svg xmlns="http://www.w3.org/2000/svg" width="29" height="35.937" viewBox="0 0 14.5 17.969"><defs><style>.cls-1{fill:#f59824;fill-rule:evenodd}</style></defs><path id="vk" class="cls-1" d="M1428.78 32.082a4.938 4.938 0 0 0-2.69-1.431v-.1a3.873 3.873 0 0 0 1.83-1.509 4.237 4.237 0 0 0 .66-2.343 4.08 4.08 0 0 0-.48-2 3.458 3.458 0 0 0-1.45-1.389 5.9 5.9 0 0 0-1.93-.634 22.691 22.691 0 0 0-3.03-.151h-6.41v17.98h7.26a11.882 11.882 0 0 0 3.11-.338 6.358 6.358 0 0 0 2.25-1.135 4.781 4.781 0 0 0 1.38-1.679 5.178 5.178 0 0 0 .51-2.355 4.116 4.116 0 0 0-1.01-2.916zm-5.03-3.436a1.462 1.462 0 0 1-.76.7 2.642 2.642 0 0 1-.97.253c-.31.016-.86.024-1.64.024h-.57v-3.8h.32q1.215 0 1.83.018a2.938 2.938 0 0 1 1.07.211 1.377 1.377 0 0 1 .7.664 2.016 2.016 0 0 1 .22.894 2.574 2.574 0 0 1-.2 1.037zm1.06 7.433a1.788 1.788 0 0 1-.91.779 3.841 3.841 0 0 1-1.38.326c-.46.016-1.28.024-2.47.024h-.24V32.7h.84c.81 0 1.46.006 1.94.018a3.52 3.52 0 0 1 1.14.175 2.079 2.079 0 0 1 1.03.713 2.17 2.17 0 0 1 .34 1.3 2.363 2.363 0 0 1-.29 1.174z" transform="translate(-1415.28 -22.531)"/></svg>