<?xml version="1.0" encoding="utf-8"?>
<!-- Generator: Adobe Illustrator 19.2.1, SVG Export Plug-In . SVG Version: 6.00 Build 0)  -->
<svg version="1.1" id="Layer_1" xmlns="http://www.w3.org/2000/svg" xmlns:xlink="http://www.w3.org/1999/xlink" x="0px" y="0px"
	 viewBox="0 0 751.7 244.7" style="enable-background:new 0 0 751.7 244.7;" xml:space="preserve">
<style type="text/css">
	.st0{fill:#DC5A27;}
	.st1{fill:#F49723;}
	.st2{fill:#1F6296;}
	.st3{fill:#1EA3DD;}
	.st4{fill:#823924;}
	.st5{fill:#0D3B51;}
	.st6{fill:#7E4F20;}
</style>
<g>
	<g>
		<polygon class="st0" points="158.4,44.4 199.8,44.4 241.3,230.6 199.8,230.6 		"/>
		<polygon class="st1" points="282.7,44.4 241.3,44.4 199.8,230.6 241.3,230.6 		"/>
		<polygon class="st2" points="241.3,44.4 282.7,44.4 324.1,230.6 282.7,230.6 		"/>
		<polygon class="st3" points="365.6,44.4 324.1,44.4 282.7,230.6 324.1,230.6 		"/>
		<rect x="383.5" y="44.4" class="st0" width="39.3" height="186.2"/>
		<rect x="442.9" y="44.4" class="st2" width="39.3" height="186.2"/>
		<rect x="541.5" y="44.4" class="st0" width="39.3" height="186.2"/>
		<rect x="601.3" y="44.4" class="st1" width="39.3" height="186.2"/>
		<polygon class="st3" points="442.9,44.4 541.5,230.6 580.8,230.6 482.2,44.4 		"/>
		<path class="st3" d="M601.3,80.7V44.4h39.3c56.8,0,92.7,37.4,92.7,93.1c0,65.8-37.9,93.1-92.7,93.1v-36.1
			c53.6,0,57.1-37.6,57.1-57c0-32.9-20.8-57-57.1-57C609.5,80.5,601.3,80.7,601.3,80.7z"/>
		<polygon class="st4" points="199.8,230.6 215.9,116.3 220.6,137.5 		"/>
		<polygon class="st5" points="282.7,230.6 298.7,116.3 303.4,137.5 		"/>
		<polygon class="st6" points="241.3,44.4 257.3,158.6 262,137.5 		"/>
		<polygon class="st1" points="383.5,220.8 422.8,44.4 422.8,230.6 383.5,230.6 		"/>
		<polygon class="st4" points="383.5,200.3 422.8,44.4 383.5,220.8 		"/>
		<polygon class="st5" points="442.9,44.4 482.2,118.5 482.2,132.6 		"/>
		<polygon class="st5" points="541.5,156.4 541.5,230.6 535.8,219.8 		"/>
		<polygon class="st6" points="601.3,80.7 640.6,80.7 640.6,88.6 		"/>
		<path class="st5" d="M640.6,194.5c12.3,0,57.1,0.4,57.1-57c0,60.9-44.7,63.1-57.1,60.2V194.5z"/>
	</g>
	<g>
		<path class="st0" d="M21.4,107.9c-0.1,0-0.1,0-0.1,0.1c0,0,0,0.1-0.1,0.1v6.4H9.6v-103h11.5v40.1h0.3c2.2-2.9,4.7-5,7.5-6.2
			c2.8-1.2,5.7-1.8,8.5-1.8c4.8,0,8.6,1,11.4,3c2.8,2,4.9,4.7,6.4,7.9c1.5,3.3,2.4,7,2.8,11.3s0.6,8.6,0.6,12.9
			c0,4.8-0.2,9.5-0.7,13.9c-0.5,4.4-1.5,8.3-3,11.7c-1.5,3.4-3.6,6-6.4,8c-2.7,2-6.4,3-11,3c-3.3,0-6.3-0.6-8.9-1.7
			C25.9,112.4,23.5,110.6,21.4,107.9z M33.9,54.9c-2.9,0-5.3,0.7-7,2.1c-1.8,1.4-3.1,3.2-4,5.5c-0.9,2.2-1.5,4.7-1.7,7.3
			c-0.2,2.7-0.4,5.3-0.4,7.8c0,2.8,0,5.7,0.1,8.9c0,3.2,0.5,6.1,1.3,8.8c0.8,2.7,2.1,4.9,3.9,6.7c1.8,1.8,4.4,2.6,7.8,2.6
			c2.8,0,5.1-0.6,6.8-1.8c1.7-1.2,3-3,4-5.3c0.9-2.3,1.6-5,1.8-8S47,83.1,47,79.4c0-3.9-0.2-7.3-0.5-10.4c-0.3-3-1-5.6-2-7.7
			c-1-2.1-2.3-3.7-4-4.8C38.7,55.5,36.6,54.9,33.9,54.9z"/>
		<path class="st0" d="M93.2,128.5c-1.5,5-3.8,8.7-7,11.1c-3.1,2.4-6.9,3.5-11.3,3.5h-3.7v-9.9h3.4c4.4,0,7.5-3.4,9.1-10.1l3-10.4
			L64.1,44.3h12.2L85,72.4l6.7,23.7h0.4l6.2-23.7l8.2-28.1h11.9L93.2,128.5z"/>
	</g>
</g>
</svg>
