<svg xmlns="http://www.w3.org/2000/svg" width="36.32" height="35.937" viewBox="0 0 18.16 17.969">
  <defs>
    <style>
      .cls-1 {
        fill: #f59824;
        fill-rule: evenodd;
      }
    </style>
  </defs>
  <path id="instagram" class="cls-1" d="M1373.39,40.5h-13.61a2.253,2.253,0,0,1-2.26-2.248V24.77a2.253,2.253,0,0,1,2.26-2.248h13.61a2.253,2.253,0,0,1,2.26,2.248V38.256A2.253,2.253,0,0,1,1373.39,40.5Zm-6.81-12.475a3.5,3.5,0,0,0-3.18,2.023h-0.01c0,0.013-.01.026-0.01,0.038a1.929,1.929,0,0,0-.09.226,0.466,0.466,0,0,0-.04.109,2.008,2.008,0,0,0-.07.238l-0.03.113a2.22,2.22,0,0,0-.04.258,0.388,0.388,0,0,0-.02.105c-0.01.122-.02,0.247-0.02,0.373a3.515,3.515,0,0,0,7.03,0c0-.126-0.01-0.251-0.02-0.373-0.01-.035-0.01-0.07-0.02-0.105a2.22,2.22,0,0,0-.04-0.258l-0.03-.113a2.008,2.008,0,0,0-.07-0.238c-0.01-.037-0.03-0.073-0.04-0.109-0.03-.077-0.06-0.152-0.09-0.226-0.01-.012-0.01-0.025-0.02-0.038h0A3.513,3.513,0,0,0,1366.58,28.029Zm7.03-2.585a0.9,0.9,0,0,0-.9-0.9h-1.82a0.906,0.906,0,0,0-.91.9v1.8a0.906,0.906,0,0,0,.91.9h1.82a0.9,0.9,0,0,0,.9-0.9v-1.8Zm0,4.608h-1.67a5.422,5.422,0,0,1,.2,1.461,5.555,5.555,0,0,1-11.11,0,5.422,5.422,0,0,1,.2-1.461h-1.67v7.53a0.9,0.9,0,0,0,.9.9h12.25a0.9,0.9,0,0,0,.9-0.9v-7.53Z" transform="translate(-1357.5 -22.531)"/>
</svg>
