<?xml version="1.0" encoding="utf-8"?>
<!-- Generator: Adobe Illustrator 20.0.0, SVG Export Plug-In . SVG Version: 6.00 Build 0)  -->
<svg version="1.1" id="Layer_1" xmlns="http://www.w3.org/2000/svg" xmlns:xlink="http://www.w3.org/1999/xlink" x="0px" y="0px"
	 viewBox="0 0 85 184" style="enable-background:new 0 0 85 184;" xml:space="preserve">
<style type="text/css">
	.st0{fill:#FFFFFF;}
</style>
<g>
	<path class="st0" d="M42.2,34.5c8.1,0,14.6-6.5,14.6-14.6S50.3,5.3,42.2,5.3c-8,0-14.6,6.5-14.6,14.6S34.2,34.5,42.2,34.5z"/>
	<path class="st0" d="M47.3,41.5l-2.6,0l1.1,4.7c0.1,0.5,0,0.9-0.4,1.3l-2.3,2.2c-0.1,0.1-0.1,0.1-0.2,0.1c0,0,0,0.1,0,0.1l4,29.8
		c0,0.3,0,0.7-0.2,0.9l-4,6.2c-0.3,0.5-0.9,0.5-1.2,0l-4.3-6.3c-0.2-0.3-0.3-0.6-0.2-1l4.2-29.8c0,0,0-0.1,0-0.1
		c0,0-0.1-0.1-0.1-0.1L39,47.5c-0.3-0.3-0.5-0.8-0.4-1.2l1-4.7l-3.4,0C11.9,44.4,4,72.5,6.2,93.9c1,9.3,15.6,9.4,14.6,0
		c-0.8-7.8-0.5-19.6,3.7-28c0,0,0,80.5-1,104.7c-0.4,10.8,16.2,10.7,16.7,0c0.8-19,1-37.9,1-56.9c0.8,0,1.6,0,2.4,0
		c0,19,0.2,38,1,56.9c0.4,10.7,17.1,10.8,16.7,0c-1-24.2-1.7-95.7-1.6-106.3c5,8.4,5.4,21.2,4.6,29.6c-1,9.3,13.6,9.2,14.6,0
		C81,72.1,72.8,43.3,47.3,41.5z"/>
</g>
</svg>
