<?xml version="1.0" encoding="utf-8"?>
<!-- Generator: Adobe Illustrator 20.0.0, SVG Export Plug-In . SVG Version: 6.00 Build 0)  -->
<svg version="1.1" id="Layer_1" xmlns="http://www.w3.org/2000/svg" xmlns:xlink="http://www.w3.org/1999/xlink" x="0px" y="0px"
	 viewBox="0 0 1500 1000" style="enable-background:new 0 0 1500 1000;" xml:space="preserve">
<style type="text/css">
	.st0{fill:#1F6296;}
	.st1{fill:#DC5A27;}
	.st2{fill:#1EA3DD;}
	.st3{fill:#F49723;}
</style>
<g>
	<circle class="st0" cx="112.4" cy="90" r="11"/>
	<path class="st0" d="M112.4,154.5c0.9,0,1.7,0.7,1.7,1.7c0,1,0,46.4,0,49.7s2.6,6,6,6s6-2.7,6-6c0-3.3,0-85.8,0-86.8
		s0.9-1.6,1.6-1.6s1.6,0.5,1.6,1.6s0,30.6,0,32.5c0,1.9,1.5,3.8,3.8,3.8c2.3,0,3.8-1.9,3.8-3.8s0-32.2,0-36.9
		c0-6-3.4-11.7-11.7-11.7c-7.5,0-12.7,0-12.7,0s-5.2,0-12.7,0c-8.3,0-11.7,5.7-11.7,11.7c0,4.7,0,35,0,36.9s1.5,3.8,3.8,3.8
		c2.3,0,3.8-1.9,3.8-3.8c0-1.9,0-31.5,0-32.5s0.9-1.6,1.6-1.6c0.7,0,1.6,0.6,1.6,1.6s0,83.5,0,86.8c0,3.3,2.6,6,6,6s6-2.8,6-6
		s0-48.7,0-49.7C110.7,155.2,111.5,154.5,112.4,154.5z"/>
</g>
<g>
	<circle class="st0" cx="143.1" cy="842.7" r="11"/>
	<path class="st0" d="M143.1,907.2c0.9,0,1.7,0.7,1.7,1.7c0,1,0,46.4,0,49.7c0,3.2,2.6,6,6,6s6-2.7,6-6c0-3.3,0-85.8,0-86.8
		c0-1,0.9-1.6,1.6-1.6s1.6,0.5,1.6,1.6c0,1,0,30.6,0,32.5c0,1.9,1.5,3.8,3.8,3.8s3.8-1.9,3.8-3.8c0-1.9,0-32.2,0-36.9
		c0-6-3.4-11.7-11.7-11.7c-7.5,0-12.7,0-12.7,0s-5.2,0-12.7,0c-8.3,0-11.7,5.7-11.7,11.7c0,4.7,0,35,0,36.9c0,1.9,1.5,3.8,3.8,3.8
		c2.3,0,3.8-1.9,3.8-3.8c0-1.9,0-31.5,0-32.5c0-1,0.9-1.6,1.6-1.6c0.7,0,1.6,0.6,1.6,1.6c0,1,0,83.5,0,86.8c0,3.3,2.6,6,6,6
		s6-2.8,6-6c0-3.2,0-48.7,0-49.7C141.4,907.9,142.2,907.2,143.1,907.2z"/>
</g>
<g>
	<circle class="st1" cx="306.3" cy="249.8" r="11"/>
	<path class="st1" d="M306.3,314.3c0.9,0,1.7,0.7,1.7,1.7s0,46.4,0,49.7c0,3.2,2.6,6,6,6s6-2.7,6-6c0-3.3,0-85.8,0-86.8
		c0-1,0.9-1.6,1.6-1.6s1.6,0.5,1.6,1.6c0,1,0,30.6,0,32.5c0,1.9,1.5,3.8,3.8,3.8c2.3,0,3.8-1.9,3.8-3.8c0-1.9,0-32.2,0-36.9
		c0-6-3.4-11.7-11.7-11.7c-7.5,0-12.7,0-12.7,0s-5.2,0-12.7,0c-8.3,0-11.7,5.7-11.7,11.7c0,4.7,0,35,0,36.9c0,1.9,1.5,3.8,3.8,3.8
		c2.3,0,3.8-1.9,3.8-3.8c0-1.9,0-31.5,0-32.5c0-1,0.9-1.6,1.6-1.6s1.6,0.6,1.6,1.6c0,1,0,83.5,0,86.8c0,3.3,2.6,6,6,6s6-2.8,6-6
		c0-3.2,0-48.7,0-49.7S305.4,314.3,306.3,314.3z"/>
</g>
<g>
	<circle class="st2" cx="705.7" cy="193.8" r="11"/>
	<path class="st2" d="M705.7,258.4c0.9,0,1.7,0.7,1.7,1.7s0,46.4,0,49.7c0,3.2,2.6,6,6,6c3.4,0,6-2.7,6-6c0-3.3,0-85.8,0-86.8
		s0.9-1.6,1.6-1.6c0.7,0,1.6,0.5,1.6,1.6s0,30.6,0,32.5c0,1.9,1.5,3.8,3.8,3.8s3.8-1.9,3.8-3.8c0-1.9,0-32.2,0-36.9
		c0-6-3.4-11.7-11.7-11.7c-7.5,0-12.7,0-12.7,0s-5.2,0-12.7,0c-8.3,0-11.7,5.7-11.7,11.7c0,4.7,0,35,0,36.9c0,1.9,1.5,3.8,3.8,3.8
		c2.3,0,3.8-1.9,3.8-3.8c0-1.9,0-31.5,0-32.5s0.9-1.6,1.6-1.6s1.6,0.6,1.6,1.6s0,83.5,0,86.8c0,3.3,2.6,6,6,6c3.4,0,6-2.8,6-6
		c0-3.2,0-48.7,0-49.7S704.9,258.4,705.7,258.4z"/>
</g>
<g>
	<circle class="st1" cx="1296.8" cy="101.9" r="11"/>
	<path class="st1" d="M1296.8,166.5c0.9,0,1.7,0.7,1.7,1.7c0,1,0,46.4,0,49.7s2.6,6,6,6c3.4,0,6-2.7,6-6c0-3.3,0-85.8,0-86.8
		c0-1,0.9-1.6,1.6-1.6s1.6,0.5,1.6,1.6s0,30.6,0,32.5c0,1.9,1.5,3.8,3.8,3.8c2.3,0,3.8-1.9,3.8-3.8s0-32.2,0-36.9
		c0-6-3.4-11.7-11.7-11.7c-7.5,0-12.7,0-12.7,0s-5.2,0-12.7,0c-8.3,0-11.7,5.7-11.7,11.7c0,4.7,0,35,0,36.9s1.5,3.8,3.8,3.8
		s3.8-1.9,3.8-3.8c0-1.9,0-31.5,0-32.5s0.9-1.6,1.6-1.6c0.7,0,1.6,0.6,1.6,1.6c0,1,0,83.5,0,86.8c0,3.3,2.6,6,6,6s6-2.8,6-6
		s0-48.7,0-49.7C1295.1,167.2,1295.9,166.5,1296.8,166.5z"/>
</g>
<g>
	<circle class="st3" cx="1332.3" cy="475.5" r="11"/>
	<path class="st3" d="M1332.3,540c0.9,0,1.7,0.7,1.7,1.7s0,46.4,0,49.7c0,3.2,2.6,6,6,6s6-2.7,6-6c0-3.3,0-85.8,0-86.8
		c0-1,0.9-1.6,1.6-1.6c0.7,0,1.6,0.5,1.6,1.6c0,1,0,30.6,0,32.5c0,1.9,1.5,3.8,3.8,3.8s3.8-1.9,3.8-3.8s0-32.2,0-36.9
		c0-6-3.4-11.7-11.7-11.7c-7.5,0-12.7,0-12.7,0s-5.2,0-12.7,0c-8.3,0-11.7,5.7-11.7,11.7c0,4.7,0,35,0,36.9s1.5,3.8,3.8,3.8
		c2.3,0,3.8-1.9,3.8-3.8c0-1.9,0-31.5,0-32.5c0-1,0.9-1.6,1.6-1.6s1.6,0.6,1.6,1.6c0,1,0,83.5,0,86.8c0,3.3,2.6,6,6,6
		c3.4,0,6-2.8,6-6c0-3.2,0-48.7,0-49.7S1331.4,540,1332.3,540z"/>
</g>
<g>
	<circle class="st3" cx="480.5" cy="71" r="11"/>
	<path class="st3" d="M480.5,135.5c0.9,0,1.7,0.7,1.7,1.7c0,1,0,46.4,0,49.7s2.6,6,6,6s6-2.7,6-6c0-3.3,0-85.8,0-86.8
		s0.9-1.6,1.6-1.6s1.6,0.5,1.6,1.6s0,30.6,0,32.5c0,1.9,1.5,3.8,3.8,3.8c2.3,0,3.8-1.9,3.8-3.8s0-32.2,0-36.9
		c0-6-3.4-11.7-11.7-11.7c-7.5,0-12.7,0-12.7,0s-5.2,0-12.7,0c-8.3,0-11.7,5.7-11.7,11.7c0,4.7,0,35,0,36.9s1.5,3.8,3.8,3.8
		s3.8-1.9,3.8-3.8c0-1.9,0-31.5,0-32.5s0.9-1.6,1.6-1.6s1.6,0.6,1.6,1.6s0,83.5,0,86.8c0,3.3,2.6,6,6,6s6-2.8,6-6s0-48.7,0-49.7
		C478.8,136.2,479.6,135.5,480.5,135.5z"/>
</g>
<g>
	<circle class="st3" cx="908.4" cy="810" r="11"/>
	<path class="st3" d="M908.4,874.5c0.9,0,1.7,0.7,1.7,1.7c0,1,0,46.4,0,49.7s2.6,6,6,6c3.4,0,6-2.7,6-6s0-85.8,0-86.8
		s0.9-1.6,1.6-1.6c0.7,0,1.6,0.5,1.6,1.6s0,30.6,0,32.5s1.5,3.8,3.8,3.8s3.8-1.9,3.8-3.8s0-32.2,0-36.9c0-6-3.4-11.7-11.7-11.7
		c-7.5,0-12.7,0-12.7,0s-5.2,0-12.7,0c-8.3,0-11.7,5.7-11.7,11.7c0,4.7,0,35,0,36.9s1.5,3.8,3.8,3.8c2.3,0,3.8-1.9,3.8-3.8
		s0-31.5,0-32.5s0.9-1.6,1.6-1.6c0.7,0,1.6,0.6,1.6,1.6s0,83.5,0,86.8s2.6,6,6,6c3.4,0,6-2.8,6-6s0-48.7,0-49.7
		C906.8,875.2,907.6,874.5,908.4,874.5z"/>
</g>
<g>
	<circle class="st0" cx="1356.8" cy="854.6" r="11"/>
	<path class="st0" d="M1356.8,919.2c0.9,0,1.7,0.7,1.7,1.7s0,46.4,0,49.7c0,3.2,2.6,6,6,6c3.4,0,6-2.7,6-6c0-3.3,0-85.8,0-86.8
		c0-1,0.9-1.6,1.6-1.6s1.6,0.5,1.6,1.6c0,1,0,30.6,0,32.5c0,1.9,1.5,3.8,3.8,3.8c2.3,0,3.8-1.9,3.8-3.8s0-32.2,0-36.9
		c0-6-3.4-11.7-11.7-11.7c-7.5,0-12.7,0-12.7,0s-5.2,0-12.7,0c-8.3,0-11.7,5.7-11.7,11.7c0,4.7,0,35,0,36.9s1.5,3.8,3.8,3.8
		s3.8-1.9,3.8-3.8c0-1.9,0-31.5,0-32.5c0-1,0.9-1.6,1.6-1.6c0.7,0,1.6,0.6,1.6,1.6c0,1,0,83.5,0,86.8c0,3.3,2.6,6,6,6s6-2.8,6-6
		c0-3.2,0-48.7,0-49.7S1355.9,919.2,1356.8,919.2z"/>
</g>
<g>
	<circle class="st1" cx="1148.6" cy="655.3" r="11"/>
	<path class="st1" d="M1148.6,719.8c0.9,0,1.7,0.7,1.7,1.7c0,1,0,46.4,0,49.7s2.6,6,6,6s6-2.7,6-6s0-85.8,0-86.8s0.9-1.6,1.6-1.6
		s1.6,0.5,1.6,1.6s0,30.6,0,32.5c0,1.9,1.5,3.8,3.8,3.8s3.8-1.9,3.8-3.8s0-32.2,0-36.9c0-6-3.4-11.7-11.7-11.7c-7.5,0-12.7,0-12.7,0
		s-5.2,0-12.7,0c-8.3,0-11.7,5.7-11.7,11.7c0,4.7,0,35,0,36.9s1.5,3.8,3.8,3.8s3.8-1.9,3.8-3.8c0-1.9,0-31.5,0-32.5s0.9-1.6,1.6-1.6
		s1.6,0.6,1.6,1.6s0,83.5,0,86.8s2.6,6,6,6s6-2.8,6-6s0-48.7,0-49.7C1146.9,720.5,1147.7,719.8,1148.6,719.8z"/>
</g>
<g>
	<circle class="st3" cx="306.3" cy="644.7" r="11"/>
	<path class="st3" d="M306.3,709.2c0.9,0,1.7,0.7,1.7,1.7c0,1,0,46.4,0,49.7c0,3.2,2.6,6,6,6s6-2.7,6-6s0-85.8,0-86.8
		c0-1,0.9-1.6,1.6-1.6s1.6,0.5,1.6,1.6c0,1,0,30.6,0,32.5c0,1.9,1.5,3.8,3.8,3.8c2.3,0,3.8-1.9,3.8-3.8c0-1.9,0-32.2,0-36.9
		c0-6-3.4-11.7-11.7-11.7c-7.5,0-12.7,0-12.7,0s-5.2,0-12.7,0c-8.3,0-11.7,5.7-11.7,11.7c0,4.7,0,35,0,36.9c0,1.9,1.5,3.8,3.8,3.8
		c2.3,0,3.8-1.9,3.8-3.8c0-1.9,0-31.5,0-32.5c0-1,0.9-1.6,1.6-1.6s1.6,0.6,1.6,1.6c0,1,0,83.5,0,86.8s2.6,6,6,6s6-2.8,6-6
		c0-3.2,0-48.7,0-49.7C304.6,709.9,305.4,709.2,306.3,709.2z"/>
</g>
<g>
	<circle class="st0" cx="920.2" cy="431.9" r="11"/>
	<path class="st0" d="M920.1,444.8c0,0,0.6,0,5.4,0c8.2,0,14.5,4.3,15.6,8.8c0.7,2.9,8.2,30.7,8.8,32.7c0.5,2-0.8,4.2-2.7,4.6
		s-4.1-0.5-4.6-2.7c-0.6-2.2-7.5-28-7.7-28.6c-0.2-0.5-1-1.5-1.9-1.1c-0.9,0.3-1.3,1.1-1.1,1.9s12.6,47.6,12.6,47.6h-10.7
		c0,0,0,35.4,0,39.7s-3.6,6-6,6c-2.4,0-6-1.9-6-6c0-4.2,0-39.7,0-39.7h-1.7h-1.7c0,0,0,35.5,0,39.7c0,4.2-3.6,6-6,6
		c-2.4,0-6-1.8-6-6s0-39.7,0-39.7h-10.7c0,0,12.4-46.8,12.6-47.6s-0.2-1.6-1.1-1.9c-0.9-0.3-1.8,0.6-1.9,1.1
		c-0.2,0.5-7.1,26.3-7.7,28.6c-0.6,2.2-2.8,3.1-4.6,2.7s-3.2-2.6-2.7-4.6c0.5-2,7.8-29.8,8.8-32.7c1.2-3.7,7.4-8.8,15.6-8.8
		C918.6,444.8,920.1,444.8,920.1,444.8z"/>
</g>
<g>
	<circle class="st3" cx="1129.7" cy="292.3" r="11"/>
	<path class="st3" d="M1129.6,305.2c0,0,0.6,0,5.4,0c8.2,0,14.5,4.3,15.6,8.8c0.7,2.9,8.2,30.7,8.8,32.7c0.5,2-0.8,4.2-2.7,4.6
		s-4.1-0.5-4.6-2.7c-0.6-2.2-7.5-28-7.7-28.6c-0.2-0.5-1-1.5-1.9-1.1c-0.9,0.3-1.3,1.1-1.1,1.9c0.2,0.8,12.6,47.6,12.6,47.6h-10.7
		c0,0,0,35.4,0,39.7c0,4.2-3.6,6-6,6c-2.4,0-6-1.9-6-6c0-4.2,0-39.7,0-39.7h-1.7h-1.7c0,0,0,35.5,0,39.7c0,4.2-3.6,6-6,6s-6-1.8-6-6
		c0-4.2,0-39.7,0-39.7h-10.7c0,0,12.4-46.8,12.6-47.6c0.2-0.8-0.2-1.6-1.1-1.9c-0.9-0.3-1.8,0.6-1.9,1.1c-0.2,0.5-7.1,26.3-7.7,28.6
		c-0.6,2.2-2.8,3.1-4.6,2.7c-1.9-0.4-3.2-2.6-2.7-4.6c0.5-2,7.8-29.8,8.8-32.7c1.2-3.7,7.4-8.8,15.6-8.8
		C1128,305.2,1129.6,305.2,1129.6,305.2z"/>
</g>
<g>
	<circle class="st0" cx="517.1" cy="429.5" r="11"/>
	<path class="st0" d="M517,442.4c0,0,0.6,0,5.4,0c8.2,0,14.5,4.3,15.6,8.8c0.7,2.9,8.2,30.7,8.8,32.7c0.5,2-0.8,4.2-2.7,4.6
		c-1.9,0.4-4.1-0.5-4.6-2.7c-0.6-2.2-7.5-28-7.7-28.6c-0.2-0.5-1-1.5-1.9-1.1c-0.9,0.3-1.3,1.1-1.1,1.9c0.2,0.8,12.6,47.6,12.6,47.6
		h-10.7c0,0,0,35.4,0,39.7s-3.6,6-6,6c-2.4,0-6-1.9-6-6c0-4.2,0-39.7,0-39.7H517h-1.7c0,0,0,35.5,0,39.7c0,4.2-3.6,6-6,6
		c-2.4,0-6-1.8-6-6s0-39.7,0-39.7h-10.7c0,0,12.4-46.8,12.6-47.6c0.2-0.8-0.2-1.6-1.1-1.9c-0.9-0.3-1.8,0.6-1.9,1.1
		c-0.2,0.5-7.1,26.3-7.7,28.6s-2.8,3.1-4.6,2.7c-1.9-0.4-3.2-2.6-2.7-4.6c0.5-2,7.8-29.8,8.8-32.7c1.2-3.7,7.4-8.8,15.6-8.8
		C515.4,442.4,517,442.4,517,442.4z"/>
</g>
<g>
	<circle class="st1" cx="930.6" cy="83" r="11"/>
	<path class="st1" d="M930.6,95.9c0,0,0.6,0,5.4,0c8.2,0,14.5,4.3,15.6,8.8c0.7,2.9,8.2,30.7,8.8,32.7c0.5,2-0.8,4.2-2.7,4.6
		c-1.9,0.4-4.1-0.5-4.6-2.7c-0.6-2.2-7.5-28-7.7-28.6c-0.2-0.5-1-1.5-1.9-1.1s-1.3,1.1-1.1,1.9c0.2,0.8,12.6,47.6,12.6,47.6h-10.7
		c0,0,0,35.4,0,39.7s-3.6,6-6,6c-2.4,0-6-1.9-6-6s0-39.7,0-39.7h-1.7h-1.7c0,0,0,35.5,0,39.7s-3.6,6-6,6s-6-1.8-6-6s0-39.7,0-39.7
		h-10.7c0,0,12.4-46.8,12.6-47.6c0.2-0.8-0.2-1.6-1.1-1.9s-1.8,0.6-1.9,1.1c-0.2,0.5-7.1,26.3-7.7,28.6c-0.6,2.2-2.8,3.1-4.6,2.7
		c-1.9-0.4-3.2-2.6-2.7-4.6c0.5-2,7.8-29.8,8.8-32.7c1.2-3.7,7.4-8.8,15.6-8.8C929,95.9,930.6,95.9,930.6,95.9z"/>
</g>
<g>
	<circle class="st1" cx="703.7" cy="624.7" r="11"/>
	<path class="st1" d="M703.7,637.7c0,0,0.6,0,5.4,0c8.2,0,14.5,4.3,15.6,8.8c0.7,2.9,8.2,30.7,8.8,32.7c0.5,2-0.8,4.2-2.7,4.6
		s-4.1-0.5-4.6-2.7c-0.6-2.2-7.5-28-7.7-28.6s-1-1.5-1.9-1.1s-1.3,1.1-1.1,1.9c0.2,0.8,12.6,47.6,12.6,47.6h-10.7c0,0,0,35.4,0,39.7
		s-3.6,6-6,6c-2.4,0-6-1.9-6-6s0-39.7,0-39.7h-1.7H702c0,0,0,35.5,0,39.7s-3.6,6-6,6c-2.4,0-6-1.8-6-6s0-39.7,0-39.7h-10.7
		c0,0,12.4-46.8,12.6-47.6c0.2-0.8-0.2-1.6-1.1-1.9c-0.9-0.3-1.8,0.6-1.9,1.1c-0.2,0.5-7.1,26.3-7.7,28.6c-0.6,2.2-2.8,3.1-4.6,2.7
		c-1.9-0.4-3.2-2.6-2.7-4.6c0.5-2,7.8-29.8,8.8-32.7c1.2-3.7,7.4-8.8,15.6-8.8C702.1,637.7,703.7,637.7,703.7,637.7z"/>
</g>
<g>
	<circle class="st2" cx="517" cy="802.2" r="11"/>
	<path class="st2" d="M516.9,815.1c0,0,0.6,0,5.4,0c8.2,0,14.5,4.3,15.6,8.8c0.7,2.9,8.2,30.7,8.8,32.7c0.5,2-0.8,4.2-2.7,4.6
		s-4.1-0.5-4.6-2.7c-0.6-2.2-7.5-28-7.7-28.6s-1-1.5-1.9-1.1s-1.3,1.1-1.1,1.9s12.6,47.6,12.6,47.6h-10.7c0,0,0,35.4,0,39.7
		s-3.6,6-6,6c-2.4,0-6-1.9-6-6c0-4.2,0-39.7,0-39.7h-1.7h-1.7c0,0,0,35.5,0,39.7c0,4.2-3.6,6-6,6s-6-1.8-6-6s0-39.7,0-39.7h-10.7
		c0,0,12.4-46.8,12.6-47.6c0.2-0.8-0.2-1.6-1.1-1.9s-1.8,0.6-1.9,1.1c-0.2,0.5-7.1,26.3-7.7,28.6c-0.6,2.2-2.8,3.1-4.6,2.7
		c-1.9-0.4-3.2-2.6-2.7-4.6c0.5-2,7.8-29.8,8.8-32.7c1.2-3.7,7.4-8.8,15.6-8.8C515.3,815.1,516.9,815.1,516.9,815.1z"/>
</g>
<g>
	<circle class="st2" cx="143.1" cy="456.9" r="11"/>
	<path class="st2" d="M143,469.8c0,0,0.6,0,5.4,0c8.2,0,14.5,4.3,15.6,8.8c0.7,2.9,8.2,30.7,8.8,32.7c0.5,2-0.8,4.2-2.7,4.6
		c-1.9,0.4-4.1-0.5-4.6-2.7c-0.6-2.2-7.5-28-7.7-28.6s-1-1.5-1.9-1.1c-0.9,0.3-1.3,1.1-1.1,1.9c0.2,0.8,12.6,47.6,12.6,47.6h-10.7
		c0,0,0,35.4,0,39.7c0,4.2-3.6,6-6,6c-2.4,0-6-1.9-6-6c0-4.2,0-39.7,0-39.7H143h-1.7c0,0,0,35.5,0,39.7c0,4.2-3.6,6-6,6s-6-1.8-6-6
		c0-4.2,0-39.7,0-39.7h-10.7c0,0,12.4-46.8,12.6-47.6c0.2-0.8-0.2-1.6-1.1-1.9c-0.9-0.3-1.8,0.6-1.9,1.1c-0.2,0.5-7.1,26.3-7.7,28.6
		c-0.6,2.2-2.8,3.1-4.6,2.7c-1.9-0.4-3.2-2.6-2.7-4.6c0.5-2,7.8-29.8,8.8-32.7c1.2-3.7,7.4-8.8,15.6-8.8
		C141.4,469.8,143,469.8,143,469.8z"/>
</g>
</svg>
