<svg xmlns="http://www.w3.org/2000/svg" width="19.406" height="24.03" viewBox="0 0 19.406 24.03">
  <defs>
    <style>
      .cls-1 {
        fill: #f59824;
        fill-rule: evenodd;
      }
    </style>
  </defs>
  <path id="vk" class="cls-1" d="M559.105,4517.27a6.63,6.63,0,0,0-3.6-1.91v-0.13a5.222,5.222,0,0,0,2.45-2.01,5.658,5.658,0,0,0,.887-3.13,5.444,5.444,0,0,0-.643-2.68,4.672,4.672,0,0,0-1.945-1.86,7.728,7.728,0,0,0-2.581-.84,29.251,29.251,0,0,0-4.045-.2h-8.562v24.01h9.7a16.031,16.031,0,0,0,4.159-.45,8.506,8.506,0,0,0,3-1.51,6.481,6.481,0,0,0,1.84-2.25,6.869,6.869,0,0,0,.684-3.14A5.49,5.49,0,0,0,559.105,4517.27Zm-6.724-4.59a1.968,1.968,0,0,1-1.009.94,3.6,3.6,0,0,1-1.294.34q-0.627.03-2.19,0.03h-0.765v-5.08h0.424c1.085,0,1.9.01,2.449,0.02a3.814,3.814,0,0,1,1.425.29,1.781,1.781,0,0,1,.936.88,2.715,2.715,0,0,1,.3,1.2A3.222,3.222,0,0,1,552.381,4512.68Zm1.425,9.93a2.375,2.375,0,0,1-1.213,1.04,5.132,5.132,0,0,1-1.856.44q-0.912.03-3.288,0.03h-0.326v-6.02h1.123q1.629,0,2.6.03a4.614,4.614,0,0,1,1.522.23,2.789,2.789,0,0,1,1.367.95,2.932,2.932,0,0,1,.456,1.75A3.124,3.124,0,0,1,553.806,4522.61Z" transform="translate(-541.063 -4504.5)"/>
</svg>
